<svg width="439" height="550" viewBox="0 0 439 550" fill="none" xmlns="http://www.w3.org/2000/svg">
<g clip-path="url(#clip0_1261_1461)">
<path d="M0 0H424C432.284 0 439 6.71573 439 15V535C439 543.284 432.284 550 424 550H0V0Z" fill="url(#paint0_linear_1261_1461)"/>
<path d="M96.075 351.775C108.569 341.002 124.503 335.052 141 335C174.625 335 202.538 360 205.575 392.237C225.475 395.05 241 411.712 241 432.162C241 454.612 222.275 472.5 199.588 472.5H88.2625C62.35 472.5 41 452.075 41 426.475C41 404.437 56.825 386.187 77.775 381.562C79.5625 370.775 86.5 360.025 96.075 351.775Z" fill="white"/>
<path d="M288.844 92.2188C304.461 78.7521 324.379 71.3147 345 71.25C387.031 71.25 421.922 102.5 425.719 142.797C450.594 146.312 470 167.141 470 192.703C470 220.766 446.594 243.125 418.234 243.125H279.078C246.687 243.125 220 217.594 220 185.594C220 158.047 239.781 135.234 265.969 129.453C268.203 115.969 276.875 102.531 288.844 92.2188Z" fill="white"/>
</g>
<defs>
<linearGradient id="paint0_linear_1261_1461" x1="219.5" y1="0" x2="219.5" y2="550" gradientUnits="userSpaceOnUse">
<stop stop-color="#016DD1"/>
<stop offset="0.536458" stop-color="#1A9FFF" stop-opacity="0.520833"/>
<stop offset="1" stop-color="#48CAF3" stop-opacity="0.31"/>
</linearGradient>
<clipPath id="clip0_1261_1461">
<path d="M0 0H424C432.284 0 439 6.71573 439 15V535C439 543.284 432.284 550 424 550H0V0Z" fill="white"/>
</clipPath>
</defs>
</svg>
