<svg width="233" height="77" viewBox="0 0 233 77" fill="none" xmlns="http://www.w3.org/2000/svg">
<path d="M48.0039 70.4141V71.3164H43.7383V74.9844H42.6484V71.3164H38.4297V70.4141H48.0039ZM38.9688 68.7383C40.9258 68.4688 42.5547 67.3027 42.5898 66.0078H39.3203V65.1172H47.1016V66.0078H43.8555C43.873 67.3027 45.4902 68.4688 47.4766 68.7383L47.0664 69.6172C45.3438 69.3477 43.8555 68.498 43.2168 67.3027C42.5723 68.498 41.0898 69.3477 39.3906 69.6172L38.9688 68.7383ZM57.0508 64.4961V67.6016H58.5742V68.5273H57.0508V72.125H55.9258V64.4961H57.0508ZM48.7891 70.0859C51.25 69.3477 52.7734 67.9473 52.9902 66.2188H49.2344V65.293H54.2031C54.2031 68.0469 52.3281 70.0449 49.2578 70.9766L48.7891 70.0859ZM50.3828 74.7734V71.3398H51.5078V73.8711H57.4844V74.7734H50.3828ZM65.0078 64.9766C66.3906 64.9648 67.4629 65.7676 67.6914 66.9453H69.7422V64.4961H70.8555V70.1328H69.7422V67.8594H67.6973C67.4805 69.0664 66.4023 69.875 65.0078 69.875C63.4023 69.875 62.248 68.8613 62.2539 67.4141C62.248 65.9844 63.4023 64.9648 65.0078 64.9766ZM63.3203 67.4141C63.3145 68.3105 64.0176 68.9375 65.0078 68.9375C65.9805 68.9375 66.6719 68.3105 66.6719 67.4141C66.6719 66.5117 65.9805 65.8965 65.0078 65.9023C64.0176 65.8965 63.3145 66.5117 63.3203 67.4141ZM64.0117 74.8672V70.6367H65.1133V71.8555H69.7422V70.6367H70.8555V74.8672H64.0117ZM65.1133 73.9531H69.7422V72.7344H65.1133V73.9531ZM82.0703 70.5195V71.4219H77.7812V74.9844H76.6914V71.4219H72.4609V70.5195H82.0703ZM73.668 69.1836V65.0586H80.8633V69.1836H73.668ZM74.7578 68.3164H79.75V65.9492H74.7578V68.3164ZM92.4414 69.3125V70.168H82.832V69.3125H92.4414ZM83.9688 71.7031V70.9062H91.2578V73.2148H85.0938V74.082H91.5859V74.8672H83.9805V72.4766H90.1562V71.7031H83.9688ZM84.0391 65.5508V64.7656H91.2344V67.0391H85.1641V67.8359H91.4102V68.6211H84.0625V66.3008H90.1211V65.5508H84.0391ZM104.898 64.4961V70.7422H103.785V68.082H101.828V67.168H103.785V64.4961H104.898ZM96.1445 69.793C97.7734 69.2246 98.7754 67.8066 98.7695 66.3594V66.125H96.4961V65.2227H102.156V66.125H99.9062V66.3477C99.9004 67.6777 100.85 68.9727 102.438 69.5117L101.863 70.3906C100.686 69.9863 99.8184 69.1426 99.3613 68.1055C98.9043 69.2773 97.9844 70.2207 96.7305 70.6836L96.1445 69.793ZM97.832 73.0156C97.8262 71.7676 99.1738 71.041 101.383 71.0352C103.58 71.041 104.928 71.7676 104.934 73.0156C104.928 74.2637 103.58 74.9902 101.383 74.9961C99.1738 74.9902 97.8262 74.2637 97.832 73.0156ZM98.9336 73.0156C98.9277 73.7246 99.8418 74.1289 101.383 74.1172C102.912 74.1289 103.826 73.7246 103.832 73.0156C103.826 72.3008 102.912 71.8965 101.383 71.9023C99.8418 71.8965 98.9277 72.3008 98.9336 73.0156ZM115.234 64.4961V75.0195H114.121V64.4961H115.234ZM107.102 66.3477V65.4453H112.023V69.2773H108.25V71.5742C109.955 71.5684 111.438 71.4863 113.195 71.1992L113.301 72.1133C111.443 72.4238 109.861 72.4941 108.004 72.5H107.113V68.3867H110.887V66.3477H107.102ZM125.066 64.4961V68.75H126.754V69.6758H125.066V74.9961H123.965V64.4961H125.066ZM116.828 67.0508V66.1367H119.418V64.6367H120.531V66.1367H123.051V67.0508H116.828ZM117.367 70.2617C117.367 68.832 118.469 67.8242 119.98 67.8242C121.486 67.8242 122.588 68.832 122.594 70.2617C122.588 71.7031 121.486 72.7051 119.98 72.7109C118.469 72.7051 117.367 71.7031 117.367 70.2617ZM118.434 70.2617C118.428 71.1758 119.084 71.7852 119.98 71.7734C120.871 71.7852 121.521 71.1758 121.527 70.2617C121.521 69.3652 120.871 68.7441 119.98 68.7383C119.084 68.7441 118.428 69.3652 118.434 70.2617ZM135.754 67.5664V68.457H128.523V64.8711H129.625V67.5664H135.754ZM127.246 70.6719V69.7812H136.855V70.6719H127.246ZM128.441 74.75V71.668H129.555V73.8359H135.824V74.75H128.441ZM148.809 64.4961V67.6016H150.332V68.5273H148.809V72.125H147.684V64.4961H148.809ZM140.547 70.0859C143.008 69.3477 144.531 67.9473 144.748 66.2188H140.992V65.293H145.961C145.961 68.0469 144.086 70.0449 141.016 70.9766L140.547 70.0859ZM142.141 74.7734V71.3398H143.266V73.8711H149.242V74.7734H142.141ZM159.18 64.4844V67.5312H160.715V68.457H159.18V72.0898H158.066V64.4844H159.18ZM151.398 70.2734V65.3867H156.086V66.2891H152.5V69.3477C154.545 69.3535 155.693 69.2891 157.012 69.0195L157.141 69.9219C155.723 70.2031 154.48 70.2734 152.23 70.2734H151.398ZM152.523 74.7734V71.3047H153.637V73.8711H159.625V74.7734H152.523ZM169.551 64.5078V67.8828H171.074V68.8086H169.551V72.3594H168.438V64.5078H169.551ZM161.312 66.6289V65.7266H163.891V64.4961H165.004V65.7266H167.57V66.6289H161.312ZM161.887 69.1133C161.881 67.9121 162.918 67.127 164.441 67.1328C165.947 67.127 166.984 67.9121 166.984 69.1133C166.984 70.3027 165.947 71.0762 164.441 71.082C162.918 71.0762 161.881 70.3027 161.887 69.1133ZM162.895 74.7734V71.7383H164.008V73.8711H169.996V74.7734H162.895ZM162.965 69.1133C162.953 69.7988 163.551 70.2207 164.441 70.2148C165.332 70.2207 165.93 69.7988 165.941 69.1133C165.93 68.4219 165.332 67.9941 164.441 67.9883C163.551 67.9941 162.953 68.4219 162.965 69.1133ZM179.465 71.0352C181.627 71.0352 182.945 71.7617 182.945 73.0039C182.945 74.2637 181.627 74.9902 179.465 74.9961C177.279 74.9902 175.938 74.2637 175.938 73.0039C175.938 71.7617 177.279 71.0352 179.465 71.0352ZM175.012 70.0273V65.1523H176.102V66.6641H178.855V65.1523H179.957V70.0273H175.012ZM176.102 69.1367H178.855V67.543H176.102V69.1367ZM177.051 73.0039C177.045 73.707 177.947 74.1055 179.465 74.1055C180.971 74.1055 181.861 73.707 181.855 73.0039C181.861 72.3066 180.971 71.9141 179.465 71.9141C177.947 71.9141 177.045 72.3066 177.051 73.0039ZM181.738 70.7656V64.4961H182.852V67.0625H184.375V68.0117H182.852V70.7656H181.738ZM186.59 65.0352V66.5703H189.215V65.0352H190.316V67.0156H192.613V64.4961H193.727V70.2266H192.613V67.9414H190.316V69.875H185.477V65.0352H186.59ZM186.59 68.9727H189.215V67.4375H186.59V68.9727ZM186.883 74.8438V70.7188H187.984V71.9023H192.613V70.7188H193.715V74.8438H186.883ZM187.984 73.9414H192.613V72.7695H187.984V73.9414Z" fill="#2E2E2E"/>
<path d="M41.7734 32.8145V37.209H24.2441V52.2969H18.873V37.209H1.53906V32.8145H41.7734ZM3.63867 25.5879C12.3057 24.4893 18.1162 19.8262 18.5068 14.9922H5.25V10.6953H38.0625V14.9922H24.8057C25.1719 19.8262 30.9336 24.4893 39.6738 25.5879L37.7207 29.8359C30.2012 28.7617 24.3418 25.3193 21.6562 20.5586C18.9463 25.3193 13.1357 28.7617 5.68945 29.8359L3.63867 25.5879ZM79.5664 8.20508V20.9004H85.7188V25.4414H79.5664V40.041H74.0488V8.20508H79.5664ZM44.6055 31.1543C54.7129 28.2246 60.6943 22.7314 61.6221 16.0176H46.4609V11.5742H67.5547C67.5791 23.293 59.9131 31.667 46.8516 35.4512L44.6055 31.1543ZM51.1973 51.4668V36.7695H56.7148V47.0723H81.2266V51.4668H51.1973ZM96.0215 11.3301V18.3125H101.246V11.3301H106.422V33.2051H109.645V11.3301H114.918V18.3125H120.191V11.3301H125.465V33.6934H110.719V42.5801H128.199V47.0234H87.9648V42.5801H105.348V33.6934H90.6992V11.3301H96.0215ZM96.0215 29.2988H101.246V22.6094H96.0215V29.2988ZM114.918 29.2988H120.191V22.6094H114.918V29.2988ZM142.262 16.457C142.262 19.8262 142.945 24.1963 145.655 27.4678C148.292 24.2939 148.976 19.9727 149 16.457V15.6758H146.461V11.2812H158.961V15.6758H154.127V16.457C154.127 21.2178 155.836 26.7109 160.914 29.3477L157.984 33.2051C154.762 31.4717 152.76 28.6152 151.588 25.2949C150.587 28.6885 148.756 31.7646 145.582 33.6445C142.506 31.7646 140.699 28.7129 139.698 25.417C138.526 28.6885 136.524 31.5205 133.326 33.2051L130.396 29.3477C135.401 26.6377 137.208 21.1689 137.184 16.457V15.6758H132.105V11.2812H144.85V15.6758H142.262V16.457ZM136.646 40.8223V36.4766H167.164V52.3457H161.744V40.8223H136.646ZM161.744 34.6211V8.20508H167.164V19.0938H172.047V23.6348H167.164V34.6211H161.744Z" fill="black"/>
<path d="M194.286 14.4375C196.846 12.2299 200.111 11.0106 203.492 11C210.382 11 216.102 16.123 216.724 22.729C220.802 23.3053 223.984 26.7198 223.984 30.9103C223.984 35.5108 220.147 39.1762 215.497 39.1762H192.685C187.375 39.1762 183 34.9908 183 29.7449C183 25.229 186.243 21.4892 190.536 20.5415C190.902 18.3309 192.324 16.1281 194.286 14.4375Z" fill="#48CAF3"/>
<path d="M201.865 28.709C203.913 26.9429 206.525 25.9675 209.23 25.959C214.742 25.959 219.318 30.0574 219.816 35.3422C223.078 35.8033 225.623 38.5348 225.623 41.8873C225.623 45.5676 222.553 48.5 218.834 48.5H200.584C196.336 48.5 192.836 45.1516 192.836 40.9549C192.836 37.3422 195.43 34.3504 198.865 33.5922C199.158 31.8238 200.295 30.0615 201.865 28.709Z" fill="#1A9FFF"/>
<path d="M215.181 23.1035C216.717 21.7789 218.677 21.0473 220.705 21.041C224.839 21.041 228.271 24.1148 228.644 28.0784C231.091 28.4242 233 30.4728 233 32.9872C233 35.7474 230.698 37.9467 227.908 37.9467H214.221C211.035 37.9467 208.41 35.4355 208.41 32.2879C208.41 29.5784 210.356 27.3345 212.931 26.7659C213.151 25.4395 214.004 24.1178 215.181 23.1035Z" fill="#016DD1" style="mix-blend-mode:plus-darker"/>
</svg>
