<svg width="439" height="760" viewBox="0 0 439 760" fill="none" xmlns="http://www.w3.org/2000/svg">
<g clip-path="url(#clip0_110_43)">
<path d="M0 0H429C434.523 0 439 4.47715 439 10V750C439 755.523 434.523 760 429 760H0V0Z" fill="url(#paint0_linear_110_43)"/>
<path d="M105.075 478.775C117.569 468.002 133.503 462.052 150 462C183.625 462 211.538 487 214.575 519.237C234.475 522.05 250 538.712 250 559.162C250 581.612 231.275 599.5 208.588 599.5H97.2625C71.35 599.5 50 579.075 50 553.475C50 531.438 65.825 513.188 86.775 508.562C88.5625 497.775 95.5 487.025 105.075 478.775Z" fill="white"/>
<path d="M265.613 112.663C284.353 96.5025 308.255 87.5776 333 87.5C383.438 87.5 425.306 125 429.863 173.356C459.712 177.575 483 202.569 483 233.244C483 266.919 454.913 293.75 420.881 293.75H253.894C215.025 293.75 183 263.113 183 224.712C183 191.656 206.737 164.281 238.162 157.344C240.844 141.162 251.25 125.038 265.613 112.663Z" fill="white"/>
</g>
<defs>
<linearGradient id="paint0_linear_110_43" x1="219.5" y1="0" x2="219.5" y2="760" gradientUnits="userSpaceOnUse">
<stop stop-color="#016DD1"/>
<stop offset="0.536458" stop-color="#1A9FFF" stop-opacity="0.520833"/>
<stop offset="1" stop-color="#48CAF3" stop-opacity="0.31"/>
</linearGradient>
<clipPath id="clip0_110_43">
<path d="M0 0H429C434.523 0 439 4.47715 439 10V750C439 755.523 434.523 760 429 760H0V0Z" fill="white"/>
</clipPath>
</defs>
</svg>
