<svg width="189" height="48" viewBox="0 0 189 48" fill="none" xmlns="http://www.w3.org/2000/svg">
<path d="M33.7188 25.8516V29.3672H19.6953V41.4375H15.3984V29.3672H1.53125V25.8516H33.7188ZM3.21094 20.0703C10.1445 19.1914 14.793 15.4609 15.1055 11.5938H4.5V8.15625H30.75V11.5938H20.1445C20.4375 15.4609 25.0469 19.1914 32.0391 20.0703L30.4766 23.4688C24.4609 22.6094 19.7734 19.8555 17.625 16.0469C15.457 19.8555 10.8086 22.6094 4.85156 23.4688L3.21094 20.0703ZM63.9531 6.16406V16.3203H68.875V19.9531H63.9531V31.6328H59.5391V6.16406H63.9531ZM35.9844 24.5234C44.0703 22.1797 48.8555 17.7852 49.5977 12.4141H37.4688V8.85938H54.3438C54.3633 18.2344 48.2305 24.9336 37.7812 27.9609L35.9844 24.5234ZM41.2578 40.7734V29.0156H45.6719V37.2578H65.2812V40.7734H41.2578ZM77.1172 8.66406V14.25H81.2969V8.66406H85.4375V26.1641H88.0156V8.66406H92.2344V14.25H96.4531V8.66406H100.672V26.5547H88.875V33.6641H102.859V37.2188H70.6719V33.6641H84.5781V26.5547H72.8594V8.66406H77.1172ZM77.1172 23.0391H81.2969V17.6875H77.1172V23.0391ZM92.2344 23.0391H96.4531V17.6875H92.2344V23.0391ZM114.109 12.7656C114.109 15.4609 114.656 18.957 116.824 21.5742C118.934 19.0352 119.48 15.5781 119.5 12.7656V12.1406H117.469V8.625H127.469V12.1406H123.602V12.7656C123.602 16.5742 124.969 20.9688 129.031 23.0781L126.688 26.1641C124.109 24.7773 122.508 22.4922 121.57 19.8359C120.77 22.5508 119.305 25.0117 116.766 26.5156C114.305 25.0117 112.859 22.5703 112.059 19.9336C111.121 22.5508 109.52 24.8164 106.961 26.1641L104.617 23.0781C108.621 20.9102 110.066 16.5352 110.047 12.7656V12.1406H105.984V8.625H116.18V12.1406H114.109V12.7656ZM109.617 32.2578V28.7812H134.031V41.4766H129.695V32.2578H109.617ZM129.695 27.2969V6.16406H134.031V14.875H137.938V18.5078H134.031V27.2969H129.695Z" fill="black"/>
<path d="M158.029 11.75C160.077 9.98388 162.689 9.00848 165.393 9C170.906 9 175.482 13.0984 175.98 18.3832C179.242 18.8443 181.787 21.5758 181.787 24.9283C181.787 28.6086 178.717 31.541 174.998 31.541H156.748C152.5 31.541 149 28.1926 149 23.9959C149 20.3832 151.594 17.3914 155.029 16.6332C155.322 14.8648 156.459 13.1025 158.029 11.75Z" fill="#48CAF3"/>
<path d="M164.092 23.1672C165.73 21.7543 167.82 20.974 169.984 20.9672C174.393 20.9672 178.054 24.2459 178.452 28.4738C181.062 28.8426 183.098 31.0279 183.098 33.7098C183.098 36.6541 180.643 39 177.667 39H163.067C159.669 39 156.869 36.3213 156.869 32.9639C156.869 30.0738 158.944 27.6803 161.692 27.0738C161.926 25.659 162.836 24.2492 164.092 23.1672Z" fill="#1A9FFF"/>
<path d="M174.745 18.6828C175.974 17.6231 177.541 17.0379 179.164 17.0328C182.471 17.0328 185.217 19.4918 185.516 22.6627C187.473 22.9393 189 24.5783 189 26.5898C189 28.798 187.158 30.5574 184.927 30.5574H173.977C171.428 30.5574 169.328 28.5484 169.328 26.0303C169.328 23.8627 170.884 22.0676 172.945 21.6127C173.121 20.5516 173.803 19.4943 174.745 18.6828Z" fill="#016DD1" style="mix-blend-mode:plus-darker"/>
</svg>
